# xmcd
#
# Track frame offsets:
#	150
#	17000
#	33518
#	49616
#	68816
#	82692
#	101432
#	116703
#	134215
#	150330
#	165954
#	185774
#
# Disc length: 2661 seconds
#
# Revision: 0
# Processed by: cddbd v1.5.2PL0 Copyright (c) Steve Scherf et al.
# Submitted via: EasyCDDAExtractor 8.0.1.1
#
DISCID=910a630c
DTITLE=Heartland - I Loved Her First
DYEAR=2006
DGENRE=Country
TTITLE0=Boys Like Us
TTITLE1=Play Hurt
TTITLE2=You
TTITLE3=Built to Last
TTITLE4=No Getting Over Me
TTITLE5=Let's Get Dirty
TTITLE6=Too Country
TTITLE7=Freebird In a Firebird
TTITLE8=I Loved Her First
TTITLE9=Mississippi Mud
TTITLE10=Judge a Man By the Woman
TTITLE11=I Like the Way You Think (Bonus Track)
EXTD=
EXTT0=
EXTT1=
EXTT2=
EXTT3=
EXTT4=
EXTT5=
EXTT6=
EXTT7=
EXTT8=
EXTT9=
EXTT10=
EXTT11=
PLAYORDER=
